<svg width="512" height="512" viewBox="0 0 512 512" fill="none" xmlns="http://www.w3.org/2000/svg">
  <rect width="512" height="512" rx="115" fill="#3C9DFF" />
  <path
    d="M 259.500 220.637 C 232.417 223.520, 205.629 236.135, 192.868 252.014 C 190.878 254.490, 188.829 256, 187.458 256 C 180.006 256, 168.282 263.895, 161.570 273.434 C 156.595 280.504, 155.906 281.741, 148.450 297 C 145.359 303.325, 140.858 311.664, 138.448 315.531 C 128.929 330.805, 128.582 340.699, 137.222 350.515 C 150.395 365.480, 174.148 369.586, 186.309 359 L 190.500 355.351 196.385 361.701 L 202.271 368.050 198.351 372.775 C 192.746 379.533, 187.101 387.667, 184.620 392.561 C 183.096 395.566, 180.503 398.109, 175.626 401.379 L 168.773 405.975 166.074 404.053 C 156.605 397.310, 150.034 386.052, 149.994 376.500 C 149.961 368.576, 149.238 367.571, 144.064 368.265 C 132.675 369.792, 122.991 386.423, 124.312 402.184 L 124.881 408.972 122.036 406.868 C 118.213 404.042, 116.998 405.117, 117.012 411.309 C 117.029 418.638, 121.812 426.998, 129.584 433.284 C 136.531 438.902, 136.941 439.594, 133.291 439.540 C 123.500 439.396, 137.470 453.309, 149.355 455.539 C 151.414 455.925, 154.903 457.748, 157.107 459.589 C 161.738 463.459, 166.404 464.987, 173.612 464.994 C 177.761 464.999, 179.423 465.555, 182.431 467.945 C 190.100 474.040, 204.111 474.935, 211.603 469.810 C 215.316 467.270, 215.926 467.171, 224.500 467.720 C 233.149 468.275, 233.669 468.446, 237.836 472.100 C 243.045 476.669, 246.589 477.372, 261.792 476.852 C 273.965 476.435, 277.660 474.948, 278.636 470.072 C 279.140 467.549, 279.817 467.112, 284.768 466.118 C 292.109 464.643, 291.719 464.556, 293.541 468.079 C 295.979 472.793, 300.149 474, 314 474 C 327.598 474, 332.408 472.688, 333.982 468.548 C 334.872 466.208, 335.440 466, 340.955 466 C 351.531 466, 357.408 462.140, 361.409 452.564 C 366.157 441.200, 361.170 431.423, 349.376 428.974 C 346.349 428.346, 343.743 427.307, 343.585 426.666 C 343.427 426.025, 342.545 422.350, 341.625 418.500 C 340.705 414.650, 338.610 409.328, 336.970 406.673 C 335.329 404.019, 332.845 397.784, 331.449 392.819 C 330.053 387.853, 327.317 379.077, 325.368 373.315 C 323.420 367.554, 321.978 362.735, 322.163 362.605 C 322.348 362.476, 326.389 359.816, 331.142 356.693 C 340.358 350.639, 348.056 342.992, 352.407 335.569 C 355.392 330.475, 359 317.607, 359 312.054 L 359 308.429 364.250 308.399 C 377.922 308.323, 388.712 295.595, 389.751 278.317 C 390.582 264.520, 387.795 260.742, 368.500 249.504 C 363 246.300, 354.225 240.759, 349 237.190 C 330.941 224.854, 320.642 221.770, 310.129 225.551 C 305.481 227.222, 304.892 227.231, 300.833 225.696 C 290.548 221.806, 270.996 219.413, 259.500 220.637"
    fill="#FFFFFF"
    fill-rule="evenodd"
    transform="matrix(1.32 0 0 1.32 -79 -204)"
  />
</svg>
