<svg width="512" height="512" viewBox="0 0 512 512" fill="none" xmlns="http://www.w3.org/2000/svg"><rect width="512" height="512" rx="115" fill="#3C9DFF"/><path d="M103.918 65.468C112.842 65.468 120.248 66.572 126.136 68.78C132.116 70.988 136.578 74.254 139.522 78.578C142.558 82.81 144.076 88.146 144.076 94.586C144.076 98.542 143.386 102.176 142.006 105.488C140.718 108.8 138.832 111.744 136.348 114.32C133.864 116.896 130.874 119.15 127.378 121.082L156.082 164H125.86L105.022 128.12H98.26V164H71.626V65.468H103.918ZM103.504 85.616H98.26V108.11H103.228C105.988 108.11 108.38 107.742 110.404 107.006C112.52 106.178 114.176 104.89 115.372 103.142C116.568 101.302 117.166 98.864 117.166 95.828C117.166 93.712 116.706 91.918 115.786 90.446C114.866 88.882 113.394 87.686 111.37 86.858C109.346 86.03 106.724 85.616 103.504 85.616ZM228.085 125.636C228.085 131.984 227.211 137.642 225.463 142.61C223.715 147.578 221.185 151.764 217.873 155.168C214.561 158.48 210.559 161.01 205.867 162.758C201.175 164.506 195.839 165.38 189.859 165.38C184.339 165.38 179.233 164.506 174.541 162.758C169.941 161.01 165.939 158.48 162.535 155.168C159.223 151.764 156.601 147.578 154.669 142.61C152.829 137.642 151.909 131.984 151.909 125.636C151.909 117.172 153.427 110.042 156.463 104.246C159.591 98.358 164.007 93.896 169.711 90.86C175.415 87.824 182.269 86.306 190.273 86.306C197.633 86.306 204.119 87.824 209.731 90.86C215.435 93.896 219.897 98.358 223.117 104.246C226.429 110.042 228.085 117.172 228.085 125.636ZM178.681 125.636C178.681 129.96 179.049 133.64 179.785 136.676C180.521 139.712 181.717 142.012 183.373 143.576C185.121 145.048 187.375 145.784 190.135 145.784C192.895 145.784 195.057 145.048 196.621 143.576C198.277 142.012 199.473 139.712 200.209 136.676C200.945 133.64 201.313 129.96 201.313 125.636C201.313 121.312 200.945 117.678 200.209 114.734C199.473 111.79 198.277 109.582 196.621 108.11C194.965 106.638 192.757 105.902 189.997 105.902C186.041 105.902 183.143 107.558 181.303 110.87C179.555 114.182 178.681 119.104 178.681 125.636ZM309.052 87.686V164H289.18L285.868 154.478H284.35C282.786 157.054 280.762 159.17 278.278 160.826C275.886 162.39 273.218 163.54 270.274 164.276C267.422 165.012 264.432 165.38 261.304 165.38C256.336 165.38 251.828 164.414 247.78 162.482C243.732 160.55 240.512 157.514 238.12 153.374C235.82 149.234 234.67 143.898 234.67 137.366V87.686H261.028V129.362C261.028 134.33 261.718 138.102 263.098 140.678C264.57 143.254 266.916 144.542 270.136 144.542C273.448 144.542 276.024 143.668 277.864 141.92C279.704 140.08 280.946 137.412 281.59 133.916C282.326 130.42 282.694 126.142 282.694 121.082V87.686H309.052ZM356.375 144.542C358.767 144.542 360.929 144.312 362.861 143.852C364.885 143.3 366.955 142.656 369.071 141.92V161.102C366.219 162.298 363.183 163.31 359.963 164.138C356.743 164.966 352.649 165.38 347.681 165.38C342.713 165.38 338.343 164.598 334.571 163.034C330.891 161.47 327.993 158.802 325.877 155.03C323.761 151.166 322.703 145.784 322.703 138.884V107.42H313.457V96.656L325.187 88.376L331.949 72.368H349.199V87.686H367.967V107.42H349.199V137.09C349.199 139.574 349.797 141.46 350.993 142.748C352.281 143.944 354.075 144.542 356.375 144.542ZM364.926 87.686H392.664L405.636 131.432C405.82 132.076 406.004 132.858 406.188 133.778C406.372 134.698 406.51 135.664 406.602 136.676C406.786 137.688 406.878 138.7 406.878 139.712H407.43C407.614 137.872 407.844 136.308 408.12 135.02C408.488 133.64 408.81 132.49 409.086 131.57L422.334 87.686H449.244L419.022 168.83C416.722 174.994 414.008 180.192 410.88 184.424C407.844 188.656 404.072 191.83 399.564 193.946C395.056 196.062 389.444 197.12 382.728 197.12C380.336 197.12 378.266 196.982 376.518 196.706C374.77 196.522 373.252 196.292 371.964 196.016V175.316C372.976 175.5 374.172 175.684 375.552 175.868C377.024 176.052 378.542 176.144 380.106 176.144C383.05 176.144 385.396 175.546 387.144 174.35C388.984 173.154 390.502 171.59 391.698 169.658C392.894 167.818 393.906 165.794 394.734 163.586L395.01 162.896L364.926 87.686Z" fill="#FFFFFF"/><path d="M 259.500 220.637 C 232.417 223.520, 205.629 236.135, 192.868 252.014 C 190.878 254.490, 188.829 256, 187.458 256 C 180.006 256, 168.282 263.895, 161.570 273.434 C 156.595 280.504, 155.906 281.741, 148.450 297 C 145.359 303.325, 140.858 311.664, 138.448 315.531 C 128.929 330.805, 128.582 340.699, 137.222 350.515 C 150.395 365.480, 174.148 369.586, 186.309 359 L 190.500 355.351 196.385 361.701 L 202.271 368.050 198.351 372.775 C 192.746 379.533, 187.101 387.667, 184.620 392.561 C 183.096 395.566, 180.503 398.109, 175.626 401.379 L 168.773 405.975 166.074 404.053 C 156.605 397.310, 150.034 386.052, 149.994 376.500 C 149.961 368.576, 149.238 367.571, 144.064 368.265 C 132.675 369.792, 122.991 386.423, 124.312 402.184 L 124.881 408.972 122.036 406.868 C 118.213 404.042, 116.998 405.117, 117.012 411.309 C 117.029 418.638, 121.812 426.998, 129.584 433.284 C 136.531 438.902, 136.941 439.594, 133.291 439.540 C 123.500 439.396, 137.470 453.309, 149.355 455.539 C 151.414 455.925, 154.903 457.748, 157.107 459.589 C 161.738 463.459, 166.404 464.987, 173.612 464.994 C 177.761 464.999, 179.423 465.555, 182.431 467.945 C 190.100 474.040, 204.111 474.935, 211.603 469.810 C 215.316 467.270, 215.926 467.171, 224.500 467.720 C 233.149 468.275, 233.669 468.446, 237.836 472.100 C 243.045 476.669, 246.589 477.372, 261.792 476.852 C 273.965 476.435, 277.660 474.948, 278.636 470.072 C 279.140 467.549, 279.817 467.112, 284.768 466.118 C 292.109 464.643, 291.719 464.556, 293.541 468.079 C 295.979 472.793, 300.149 474, 314 474 C 327.598 474, 332.408 472.688, 333.982 468.548 C 334.872 466.208, 335.440 466, 340.955 466 C 351.531 466, 357.408 462.140, 361.409 452.564 C 366.157 441.200, 361.170 431.423, 349.376 428.974 C 346.349 428.346, 343.743 427.307, 343.585 426.666 C 343.427 426.025, 342.545 422.350, 341.625 418.500 C 340.705 414.650, 338.610 409.328, 336.970 406.673 C 335.329 404.019, 332.845 397.784, 331.449 392.819 C 330.053 387.853, 327.317 379.077, 325.368 373.315 C 323.420 367.554, 321.978 362.735, 322.163 362.605 C 322.348 362.476, 326.389 359.816, 331.142 356.693 C 340.358 350.639, 348.056 342.992, 352.407 335.569 C 355.392 330.475, 359 317.607, 359 312.054 L 359 308.429 364.250 308.399 C 377.922 308.323, 388.712 295.595, 389.751 278.317 C 390.582 264.520, 387.795 260.742, 368.500 249.504 C 363 246.300, 354.225 240.759, 349 237.190 C 330.941 224.854, 320.642 221.770, 310.129 225.551 C 305.481 227.222, 304.892 227.231, 300.833 225.696 C 290.548 221.806, 270.996 219.413, 259.500 220.637" fill="#FFFFFF" fill-rule="evenodd"/></svg>
